<svg width="28" height="31" viewBox="0 0 28 31" fill="none" xmlns="http://www.w3.org/2000/svg">
<path fill-rule="evenodd" clip-rule="evenodd" d="M8.39698 24.7998C6.85755 24.7998 5.61201 26.1948 5.61201 27.8998C5.61201 29.6048 6.85755 30.9998 8.39698 30.9998C9.93641 30.9998 11.1959 29.6048 11.1959 27.8998C11.1959 26.1948 9.93641 24.7998 8.39698 24.7998ZM0 1.54999C0 2.40249 0.629766 3.09998 1.39948 3.09998H2.79896L7.83709 14.8644L5.94779 18.6464C4.92617 20.7234 6.26967 23.2499 8.39688 23.2499H23.7912C24.5609 23.2499 25.1906 22.5524 25.1906 21.6999C25.1906 20.8474 24.5609 20.1499 23.7912 20.1499H8.39688L9.93631 17.0499H20.3624C21.412 17.0499 22.3357 16.4144 22.8115 15.4534L27.8217 5.39397C28.3395 4.37098 27.6677 3.09998 26.6041 3.09998H5.89181L4.95416 0.883496C4.73024 0.340998 4.22643 0 3.69463 0H1.39948C0.629766 0 0 0.697497 0 1.54999ZM22.3916 24.7998C20.8522 24.7998 19.6067 26.1948 19.6067 27.8998C19.6067 29.6048 20.8522 30.9998 22.3916 30.9998C23.9311 30.9998 25.1906 29.6048 25.1906 27.8998C25.1906 26.1948 23.9311 24.7998 22.3916 24.7998Z" fill="#0D6EFD"/>
</svg>
