<svg width="30" height="33" viewBox="0 0 30 33" fill="none" xmlns="http://www.w3.org/2000/svg">
<path d="M13 31C13 32.1046 13.8954 33 15 33C16.1046 33 17 32.1046 17 31H13ZM16.4142 0.585787C15.6332 -0.195263 14.3668 -0.195263 13.5858 0.585787L0.857864 13.3137C0.0768156 14.0948 0.0768156 15.3611 0.857864 16.1421C1.63891 16.9232 2.90524 16.9232 3.68629 16.1421L15 4.82843L26.3137 16.1421C27.0948 16.9232 28.3611 16.9232 29.1421 16.1421C29.9232 15.3611 29.9232 14.0948 29.1421 13.3137L16.4142 0.585787ZM17 31V2H13L13 31H17Z" fill="white"/>
</svg>
