<svg width="148" height="44" viewBox="0 0 148 44" fill="none" xmlns="http://www.w3.org/2000/svg">
<g opacity="0.8">
<path fill-rule="evenodd" clip-rule="evenodd" d="M14.4673 1.91309H37.1847C40.9486 1.91309 43.9999 5.28555 43.9999 9.44569V34.5544C43.9999 38.7145 40.9486 42.087 37.1847 42.087H14.4673C10.7034 42.087 7.6521 38.7145 7.6521 34.5544L7.6521 9.44569C7.6521 5.28555 10.7034 1.91309 14.4673 1.91309Z" fill="#0D6EFD" fill-opacity="0.2"/>
<path fill-rule="evenodd" clip-rule="evenodd" d="M8.13046 1.91309H32.0435C36.0055 1.91309 39.2174 5.28555 39.2174 9.44569V34.5544C39.2174 38.7145 36.0055 42.087 32.0435 42.087H8.13046C4.16841 42.087 0.956542 38.7145 0.956543 34.5544L0.956543 9.44569C0.956543 5.28555 4.16841 1.91309 8.13046 1.91309Z" fill="#0D6EFD"/>
<g opacity="0.7">
<path opacity="0.3" fill-rule="evenodd" clip-rule="evenodd" d="M15.2902 18.356H14.3097C14.2592 18.356 14.1842 18.4263 14.1813 18.4727L13.459 30.1474L26.9549 30.1449L26.2254 18.4727C26.2226 18.428 26.1458 18.356 26.097 18.356H25.1165V20.3212C25.1165 20.8639 24.6765 21.3038 24.1338 21.3038C23.5912 21.3038 23.1512 20.8639 23.1512 20.3212V18.356H17.2555V20.3212C17.2555 20.8639 16.8156 21.3038 16.2729 21.3038C15.7302 21.3038 15.2902 20.8639 15.2902 20.3212V18.356Z" fill="white"/>
<path fill-rule="evenodd" clip-rule="evenodd" d="M20.2033 11.478C22.9153 11.478 25.1164 13.6794 25.1164 16.3888L26.0969 16.3911C27.1835 16.3911 28.1192 17.2701 28.1867 18.3505L28.9244 30.1537C28.9921 31.2358 28.1698 32.1131 27.0865 32.1131H13.3201C12.2374 32.1131 11.4146 31.2341 11.4821 30.1537L12.2198 18.3505C12.2875 17.2684 13.2213 16.3911 14.3096 16.3911H15.2902C15.2902 13.6779 17.493 11.478 20.2033 11.478ZM23.1511 16.3912C23.1511 14.7648 21.8299 13.4434 20.2033 13.4434C18.5778 13.4434 17.2554 14.764 17.2554 16.3889L23.1511 16.3912ZM15.2902 18.3563H14.3096C14.2591 18.3563 14.1842 18.4266 14.1813 18.4731L13.4589 30.1478L26.9548 30.1452L26.2253 18.4731C26.2225 18.4284 26.1457 18.3563 26.0969 18.3563H25.1164V20.3216C25.1164 20.8643 24.6765 21.3042 24.1338 21.3042C23.5911 21.3042 23.1512 20.8643 23.1512 20.3216V18.3563H17.2554V20.3216C17.2554 20.8643 16.8155 21.3042 16.2728 21.3042C15.7301 21.3042 15.2902 20.8643 15.2902 20.3216V18.3563Z" fill="white"/>
</g>
</g>
<path d="M63.244 11.94C63.9533 12.5933 64.476 13.3773 64.812 14.292C65.148 15.188 65.2787 16.084 65.204 16.98C65.1293 17.8387 64.8587 18.632 64.392 19.36C63.9253 20.0693 63.216 20.6107 62.264 20.984C61.5173 21.3013 60.78 21.5253 60.052 21.656C59.324 21.7867 58.5213 21.8893 57.644 21.964C57.252 22.0013 56.916 22.0293 56.636 22.048C56.3747 22.048 56.0667 22.0573 55.712 22.076C55.6373 22.076 55.5067 22.076 55.32 22.076C55.152 22.076 55.0307 22.0853 54.956 22.104V27.9C54.9 28.2547 54.8253 28.6187 54.732 28.992C54.6573 29.3653 54.4427 29.6547 54.088 29.86C53.8827 29.972 53.6307 30.0373 53.332 30.056C53.0333 30.0747 52.7627 30.0653 52.52 30.028C52.2587 29.9907 52.0347 29.9253 51.848 29.832C51.68 29.72 51.54 29.5333 51.428 29.272C51.3533 29.104 51.2787 28.9173 51.204 28.712C51.148 28.488 51.12 28.2173 51.12 27.9V12.416C51.12 12.2853 51.1293 12.164 51.148 12.052C51.1667 11.94 51.1853 11.828 51.204 11.716C51.2413 11.6227 51.2693 11.52 51.288 11.408C51.3067 11.296 51.3347 11.1933 51.372 11.1C51.4093 11.0067 51.4467 10.9227 51.484 10.848C51.54 10.7733 51.6053 10.708 51.68 10.652C51.7733 10.5587 51.9133 10.4747 52.1 10.4C52.3053 10.3253 52.604 10.288 52.996 10.288H53.052C53.6307 10.2507 54.2747 10.2227 54.984 10.204C55.6933 10.1667 56.2813 10.176 56.748 10.232C57.0093 10.2693 57.252 10.2973 57.476 10.316C57.7 10.316 57.9147 10.3253 58.12 10.344C58.344 10.3627 58.568 10.3813 58.792 10.4C59.016 10.4187 59.24 10.4467 59.464 10.484C59.6507 10.5213 59.8187 10.5493 59.968 10.568C60.136 10.5867 60.304 10.6147 60.472 10.652C60.6213 10.6893 60.78 10.7267 60.948 10.764C61.1347 10.8013 61.3027 10.8667 61.452 10.96C61.844 11.072 62.1707 11.212 62.432 11.38C62.6933 11.548 62.964 11.7347 63.244 11.94ZM61.564 16.56C61.5827 16.112 61.4893 15.72 61.284 15.384C61.0973 15.048 60.8267 14.768 60.472 14.544C60.1173 14.32 59.716 14.1427 59.268 14.012C58.82 13.8813 58.372 13.788 57.924 13.732C57.812 13.732 57.6533 13.732 57.448 13.732C57.2613 13.7133 57.056 13.704 56.832 13.704C56.608 13.6853 56.3933 13.676 56.188 13.676C56.0013 13.6573 55.852 13.648 55.74 13.648C55.6467 13.6293 55.5347 13.62 55.404 13.62C55.2733 13.62 55.124 13.62 54.956 13.62C54.9747 14.1987 54.984 14.7587 54.984 15.3C54.984 15.8227 54.984 16.392 54.984 17.008C54.9653 17.344 54.956 17.68 54.956 18.016C54.956 18.352 54.956 18.6787 54.956 18.996L56.692 18.968C57.14 18.968 57.6347 18.94 58.176 18.884C58.7173 18.828 59.2307 18.716 59.716 18.548C60.2013 18.38 60.612 18.1373 60.948 17.82C61.3027 17.5027 61.508 17.0827 61.564 16.56ZM71.3349 13.536L71.2789 17.932H72.3989C73.1642 17.9133 73.8456 17.904 74.4429 17.904C75.0402 17.904 75.7029 17.9133 76.4309 17.932H76.5709C76.7949 17.932 77.0096 17.9413 77.2149 17.96C77.4389 17.96 77.6536 17.96 77.8589 17.96C78.0829 17.9787 78.2976 18.016 78.5029 18.072C78.7082 18.1093 78.9136 18.156 79.1189 18.212C79.4362 18.324 79.6976 18.492 79.9029 18.716C80.0896 18.9587 80.1829 19.2293 80.1829 19.528C80.1829 19.6213 80.1829 19.7333 80.1829 19.864C80.1829 19.976 80.1642 20.0787 80.1269 20.172C80.0896 20.3773 79.9682 20.564 79.7629 20.732C79.6696 20.8627 79.4922 20.956 79.2309 21.012C78.9882 21.0867 78.7456 21.1333 78.5029 21.152C78.2416 21.208 77.9802 21.236 77.7189 21.236H76.4029L71.2229 21.264L71.1669 26.752L76.7389 26.808H78.0549C78.2042 26.808 78.3442 26.808 78.4749 26.808C78.6056 26.808 78.7269 26.8173 78.8389 26.836C78.9882 26.8733 79.1189 26.9013 79.2309 26.92C79.3616 26.92 79.4829 26.9387 79.5949 26.976C79.8189 27.0507 80.0056 27.1533 80.1549 27.284C80.3416 27.4707 80.4629 27.6667 80.5189 27.872C80.5376 27.9653 80.5469 28.068 80.5469 28.18C80.5656 28.2733 80.5656 28.376 80.5469 28.488C80.5469 28.7867 80.4536 29.0573 80.2669 29.3C80.0429 29.5613 79.7816 29.7293 79.4829 29.804C79.0909 29.972 78.6616 30.056 78.1949 30.056C77.9896 30.0747 77.7749 30.084 77.5509 30.084C77.3269 30.084 77.1122 30.0933 76.9069 30.112H76.7389C75.2829 30.1493 73.7709 30.1493 72.2029 30.112C71.8296 30.112 71.5309 30.1027 71.3069 30.084C71.0829 30.084 70.8776 30.084 70.6909 30.084C70.5229 30.084 70.3456 30.084 70.1589 30.084C69.9722 30.084 69.7296 30.084 69.4309 30.084C69.0016 30.1213 68.6469 30.0467 68.3669 29.86C68.1616 29.7293 68.0029 29.552 67.8909 29.328C67.8349 29.272 67.8069 29.216 67.8069 29.16C67.7882 29.1227 67.7696 29.0947 67.7509 29.076C67.7322 29.0573 67.7136 29.0293 67.6949 28.992C67.6576 28.8987 67.6296 28.8053 67.6109 28.712C67.5922 28.6 67.5829 28.4973 67.5829 28.404C67.5642 28.3107 67.5456 28.2173 67.5269 28.124C67.5269 28.0307 67.5176 27.9373 67.4989 27.844V27.396C67.4989 27.3213 67.4989 27.2467 67.4989 27.172C67.5176 27.0973 67.5269 27.0227 67.5269 26.948V24.764L67.5829 20.732V17.008C67.5829 16.336 67.5829 15.7387 67.5829 15.216C67.6016 14.6933 67.6202 14.124 67.6389 13.508V13.368C67.6576 13.1627 67.6669 12.976 67.6669 12.808C67.6856 12.6213 67.6949 12.4347 67.6949 12.248C67.7136 11.8747 67.8162 11.5107 68.0029 11.156C68.0776 11.0067 68.1522 10.876 68.2269 10.764C68.3202 10.652 68.4416 10.5587 68.5909 10.484C68.8709 10.316 69.1602 10.232 69.4589 10.232C69.6082 10.232 69.7202 10.2413 69.7949 10.26V10.232C70.1309 10.232 70.4016 10.232 70.6069 10.232C70.8122 10.232 71.0082 10.232 71.1949 10.232C71.4002 10.232 71.6149 10.232 71.8389 10.232C72.0629 10.2133 72.3709 10.204 72.7629 10.204C73.5096 10.1853 74.2189 10.176 74.8909 10.176C75.5629 10.176 76.2536 10.1853 76.9629 10.204H77.0749C77.2802 10.2227 77.4949 10.232 77.7189 10.232C77.9429 10.232 78.1576 10.2413 78.3629 10.26C78.5682 10.26 78.7736 10.288 78.9789 10.344C79.1842 10.3813 79.3896 10.4373 79.5949 10.512C79.9122 10.6053 80.1736 10.764 80.3789 10.988C80.5469 11.2493 80.6309 11.5107 80.6309 11.772C80.6309 11.884 80.6309 11.996 80.6309 12.108C80.6309 12.2013 80.6122 12.2947 80.5749 12.388C80.5562 12.5747 80.4442 12.7707 80.2389 12.976C80.1642 13.0133 80.0802 13.06 79.9869 13.116C79.9122 13.172 79.8189 13.2187 79.7069 13.256C79.5949 13.2933 79.4736 13.3213 79.3429 13.34C79.2309 13.34 79.1189 13.3493 79.0069 13.368C78.8576 13.4053 78.7176 13.424 78.5869 13.424C78.4749 13.424 78.3442 13.424 78.1949 13.424H76.9349L71.3349 13.452V13.536ZM89.5581 25.072C89.2034 24.848 88.8021 24.6707 88.3541 24.54C87.9248 24.4093 87.4768 24.288 87.0101 24.176C86.5621 24.064 86.1234 23.9427 85.6941 23.812C85.2648 23.6627 84.8728 23.4573 84.5181 23.196C83.7528 22.6173 83.3048 21.908 83.1741 21.068C83.0621 20.2093 83.2488 19.3507 83.7341 18.492C83.9954 18.044 84.3408 17.68 84.7701 17.4C85.1994 17.1013 85.6661 16.8773 86.1701 16.728C86.6928 16.56 87.2248 16.4667 87.7661 16.448C88.3074 16.4293 88.8208 16.4573 89.3061 16.532C89.6234 16.588 89.9594 16.672 90.3141 16.784C90.6688 16.8773 90.9954 17.008 91.2941 17.176C91.6114 17.344 91.8914 17.5587 92.1341 17.82C92.3954 18.0627 92.5821 18.3707 92.6941 18.744C92.7688 18.9867 92.7781 19.22 92.7221 19.444C92.6848 19.668 92.5914 19.8547 92.4421 20.004C92.3114 20.1533 92.1341 20.2653 91.9101 20.34C91.7048 20.4147 91.4808 20.4333 91.2381 20.396C90.9581 20.34 90.6968 20.256 90.4541 20.144C90.2114 20.032 89.9688 19.9107 89.7261 19.78C89.4834 19.6493 89.2314 19.5373 88.9701 19.444C88.7274 19.3507 88.4661 19.304 88.1861 19.304C87.7568 19.2853 87.4021 19.36 87.1221 19.528C86.8421 19.696 86.6461 19.9013 86.5341 20.144C86.4408 20.3867 86.4501 20.648 86.5621 20.928C86.6928 21.208 86.9541 21.4507 87.3461 21.656C87.7008 21.8427 88.0928 21.992 88.5221 22.104C88.9514 22.216 89.3714 22.328 89.7821 22.44C90.2114 22.552 90.6221 22.6827 91.0141 22.832C91.4248 22.9813 91.7888 23.1867 92.1061 23.448C92.7221 23.952 93.0954 24.54 93.2261 25.212C93.3754 25.884 93.3381 26.5467 93.1141 27.2C92.8901 27.8533 92.4981 28.432 91.9381 28.936C91.3968 29.44 90.7528 29.776 90.0061 29.944C89.4648 30.056 88.8768 30.112 88.2421 30.112C87.6261 30.112 87.0101 30.0467 86.3941 29.916C85.7968 29.7853 85.2181 29.58 84.6581 29.3C84.1168 29.02 83.6594 28.6653 83.2861 28.236C83.0248 27.9373 82.8848 27.6013 82.8661 27.228C82.8661 26.836 82.9408 26.5 83.0901 26.22C83.2581 25.9213 83.4914 25.716 83.7901 25.604C84.0888 25.492 84.4248 25.5573 84.7981 25.8C85.0968 26.0053 85.4514 26.2107 85.8621 26.416C86.2728 26.6027 86.6834 26.752 87.0941 26.864C87.5048 26.976 87.8968 27.032 88.2701 27.032C88.6621 27.032 88.9981 26.948 89.2781 26.78C89.6888 26.5187 89.9034 26.22 89.9221 25.884C89.9408 25.5293 89.8194 25.2587 89.5581 25.072ZM106.334 17.652C106.483 18.0067 106.492 18.3987 106.362 18.828C106.25 19.2573 106.035 19.5373 105.718 19.668C105.55 19.7427 105.326 19.808 105.046 19.864C104.766 19.9013 104.458 19.9387 104.122 19.976C103.804 20.0133 103.487 20.0413 103.17 20.06C102.852 20.0787 102.582 20.088 102.358 20.088C102.376 20.648 102.395 21.2267 102.414 21.824C102.432 22.4027 102.451 22.972 102.47 23.532C102.488 24.092 102.498 24.6333 102.498 25.156C102.498 25.66 102.488 26.1173 102.47 26.528C102.47 26.808 102.47 27.1347 102.47 27.508C102.47 27.8627 102.442 28.208 102.386 28.544C102.348 28.88 102.283 29.1787 102.19 29.44C102.096 29.6827 101.956 29.8413 101.77 29.916C101.191 30.1587 100.659 30.224 100.174 30.112C99.7071 30.0187 99.3711 29.8227 99.1658 29.524C99.0165 29.2813 98.9045 29.0013 98.8298 28.684C98.7551 28.348 98.6991 28.012 98.6618 27.676C98.6431 27.3213 98.6338 26.9853 98.6338 26.668C98.6525 26.332 98.6618 26.0427 98.6618 25.8C98.6805 25.016 98.6898 24.1293 98.6898 23.14C98.7085 22.132 98.7178 21.124 98.7178 20.116H98.2978C98.0738 20.116 97.7845 20.116 97.4298 20.116C97.0938 20.0973 96.7485 20.0693 96.3938 20.032C96.0578 19.976 95.7405 19.9107 95.4418 19.836C95.1431 19.7427 94.9285 19.612 94.7978 19.444C94.5925 19.2013 94.4618 18.94 94.4058 18.66C94.3685 18.38 94.3871 18.1187 94.4618 17.876C94.5551 17.6147 94.6951 17.3907 94.8818 17.204C95.0685 16.9987 95.2831 16.868 95.5258 16.812C95.8618 16.7187 96.3378 16.672 96.9538 16.672C97.5698 16.6533 98.1485 16.6533 98.6898 16.672C98.6711 16.4853 98.6618 16.308 98.6618 16.14C98.6618 15.9533 98.6525 15.776 98.6338 15.608C98.6151 15.384 98.6058 15.104 98.6058 14.768C98.6058 14.4133 98.6245 14.068 98.6618 13.732C98.7178 13.3773 98.8018 13.0507 98.9138 12.752C99.0258 12.4347 99.1845 12.192 99.3898 12.024C99.6698 11.8 99.9498 11.6787 100.23 11.66C100.528 11.6227 100.799 11.66 101.042 11.772C101.303 11.884 101.518 12.052 101.686 12.276C101.872 12.4813 102.003 12.7147 102.078 12.976C102.134 13.2 102.18 13.4707 102.218 13.788C102.255 14.0867 102.274 14.404 102.274 14.74C102.292 15.076 102.302 15.412 102.302 15.748C102.302 16.084 102.302 16.392 102.302 16.672H102.582C102.862 16.672 103.188 16.6627 103.562 16.644C103.935 16.6253 104.299 16.6347 104.654 16.672C105.027 16.7093 105.363 16.8027 105.662 16.952C105.96 17.0827 106.184 17.316 106.334 17.652ZM110.814 17.344C111.43 17.0453 112.074 16.8307 112.746 16.7C113.418 16.5693 114.081 16.5413 114.734 16.616C115.406 16.6907 116.05 16.868 116.666 17.148C117.301 17.428 117.879 17.82 118.402 18.324C118.831 18.7533 119.205 19.276 119.522 19.892C119.839 20.4893 120.073 21.0773 120.222 21.656C120.539 22.6827 120.586 23.7187 120.362 24.764C120.138 25.8093 119.755 26.78 119.214 27.676C118.953 28.0867 118.626 28.46 118.234 28.796C117.861 29.1133 117.459 29.3747 117.03 29.58C116.47 29.8413 115.863 30.0187 115.21 30.112C114.557 30.224 113.922 30.252 113.306 30.196C112.186 30.14 111.197 29.86 110.338 29.356C109.498 28.852 108.817 28.208 108.294 27.424C107.79 26.64 107.454 25.7533 107.286 24.764C107.137 23.756 107.202 22.7293 107.482 21.684C107.781 20.564 108.21 19.6587 108.77 18.968C109.349 18.2587 110.03 17.7173 110.814 17.344ZM111.654 21.096C111.374 21.3573 111.159 21.684 111.01 22.076C110.861 22.468 110.767 22.8787 110.73 23.308C110.693 23.7187 110.721 24.1387 110.814 24.568C110.926 24.9787 111.094 25.352 111.318 25.688C111.505 25.968 111.841 26.2013 112.326 26.388C112.811 26.5747 113.315 26.6867 113.838 26.724C114.435 26.7613 114.958 26.6027 115.406 26.248C115.854 25.8747 116.19 25.4173 116.414 24.876C116.657 24.3347 116.769 23.7467 116.75 23.112C116.731 22.4773 116.563 21.8987 116.246 21.376C116.022 21.0027 115.705 20.732 115.294 20.564C114.902 20.3773 114.482 20.284 114.034 20.284C113.605 20.2653 113.175 20.3307 112.746 20.48C112.317 20.6107 111.953 20.816 111.654 21.096ZM122.761 20.088C122.761 19.864 122.761 19.612 122.761 19.332C122.761 19.0333 122.771 18.7347 122.789 18.436C122.808 18.1187 122.836 17.82 122.873 17.54C122.929 17.2413 123.004 16.98 123.097 16.756C123.247 16.42 123.48 16.196 123.797 16.084C124.115 15.9533 124.46 15.8973 124.833 15.916C125.225 15.916 125.533 15.9813 125.757 16.112C125.981 16.2427 126.149 16.42 126.261 16.644C126.373 16.8493 126.439 17.092 126.457 17.372C126.495 17.6333 126.513 17.9133 126.513 18.212C126.681 17.9133 126.905 17.6707 127.185 17.484C127.484 17.2973 127.783 17.148 128.081 17.036C128.38 16.924 128.651 16.8493 128.893 16.812C129.136 16.756 129.276 16.728 129.313 16.728C129.78 16.6907 130.2 16.6813 130.573 16.7C130.965 16.7187 131.395 16.8027 131.861 16.952C132.16 17.064 132.468 17.2227 132.785 17.428C133.103 17.6147 133.383 17.8387 133.625 18.1C133.868 18.3613 134.027 18.6507 134.101 18.968C134.195 19.2667 134.157 19.584 133.989 19.92C133.728 20.3867 133.439 20.62 133.121 20.62C132.804 20.6013 132.459 20.5453 132.085 20.452C131.88 20.4147 131.637 20.3307 131.357 20.2C131.077 20.0693 130.835 19.9853 130.629 19.948C129.995 19.8547 129.435 19.9013 128.949 20.088C128.464 20.2747 128.044 20.4987 127.689 20.76C127.279 21.0773 126.924 21.4413 126.625 21.852V25.884C126.625 26.388 126.616 26.9107 126.597 27.452C126.597 27.9933 126.523 28.488 126.373 28.936C126.243 29.3653 126.009 29.72 125.673 30C125.356 30.2613 124.889 30.3733 124.273 30.336C123.937 30.3173 123.639 30.1587 123.377 29.86C123.116 29.5427 122.957 29.2347 122.901 28.936C122.864 28.656 122.836 28.32 122.817 27.928C122.799 27.536 122.78 27.1253 122.761 26.696C122.761 26.2667 122.761 25.8373 122.761 25.408C122.761 24.96 122.761 24.5493 122.761 24.176V20.088ZM144.425 26.164C144.649 26.108 144.873 26.0707 145.097 26.052C145.34 26.0333 145.555 26.0613 145.741 26.136C145.947 26.2107 146.115 26.3413 146.245 26.528C146.376 26.696 146.441 26.9387 146.441 27.256C146.441 27.48 146.385 27.6947 146.273 27.9C146.161 28.1053 146.021 28.292 145.853 28.46C145.685 28.628 145.499 28.7773 145.293 28.908C145.088 29.02 144.892 29.1133 144.705 29.188C144.164 29.4307 143.539 29.6173 142.829 29.748C142.139 29.8787 141.42 29.9253 140.673 29.888C139.665 29.8507 138.695 29.6547 137.761 29.3C136.847 28.9267 136.128 28.32 135.605 27.48C135.12 26.6587 134.831 25.744 134.737 24.736C134.644 23.728 134.691 22.776 134.877 21.88C135.083 20.7973 135.428 19.92 135.913 19.248C136.417 18.5573 137.015 18.0067 137.705 17.596C138.545 17.1107 139.488 16.8587 140.533 16.84C141.579 16.8213 142.577 17.0267 143.529 17.456C144.164 17.736 144.733 18.1187 145.237 18.604C145.741 19.0707 146.124 19.64 146.385 20.312C146.46 20.48 146.516 20.6853 146.553 20.928C146.609 21.1707 146.647 21.432 146.665 21.712C146.684 21.9733 146.684 22.2347 146.665 22.496C146.647 22.7573 146.6 22.9907 146.525 23.196C146.413 23.532 146.273 23.7933 146.105 23.98C145.937 24.1667 145.723 24.3067 145.461 24.4C145.2 24.4933 144.883 24.5587 144.509 24.596C144.155 24.6147 143.725 24.6333 143.221 24.652C142.773 24.6707 142.353 24.68 141.961 24.68C141.569 24.68 141.168 24.68 140.757 24.68C140.347 24.6613 139.917 24.652 139.469 24.652C139.04 24.6333 138.555 24.6147 138.013 24.596C137.957 24.9693 138.004 25.296 138.153 25.576C138.321 25.8373 138.545 26.0613 138.825 26.248C139.105 26.416 139.423 26.5467 139.777 26.64C140.132 26.7333 140.477 26.7893 140.813 26.808C141.448 26.8453 142.055 26.7987 142.633 26.668C143.212 26.5187 143.809 26.3507 144.425 26.164ZM143.221 20.732C142.867 20.3213 142.493 20.0227 142.101 19.836C141.803 19.7053 141.485 19.6493 141.149 19.668C140.832 19.668 140.524 19.7147 140.225 19.808C139.684 19.9387 139.227 20.2187 138.853 20.648C138.816 20.6853 138.751 20.7787 138.657 20.928C138.564 21.0587 138.471 21.1987 138.377 21.348C138.303 21.4973 138.247 21.6373 138.209 21.768C138.172 21.8987 138.191 21.964 138.265 21.964H143.753C143.735 21.7027 143.688 21.488 143.613 21.32C143.539 21.1333 143.408 20.9373 143.221 20.732Z" fill="#3B89FB"/>
</svg>
